<svg width="84" height="19" viewBox="0 0 84 19" fill="none" xmlns="http://www.w3.org/2000/svg">
<path d="M9.832 0.959999L15.664 15.984C15.888 16.56 16.136 16.96 16.408 17.184C16.696 17.392 16.952 17.504 17.176 17.52V18C16.696 17.968 16.128 17.952 15.472 17.952C14.832 17.936 14.184 17.928 13.528 17.928C12.792 17.928 12.096 17.936 11.44 17.952C10.784 17.952 10.264 17.968 9.88 18V17.52C10.696 17.488 11.208 17.352 11.416 17.112C11.64 16.856 11.592 16.32 11.272 15.504L7.192 4.344L7.624 3.72L3.976 13.224C3.624 14.104 3.408 14.824 3.328 15.384C3.264 15.944 3.304 16.376 3.448 16.68C3.608 16.984 3.856 17.2 4.192 17.328C4.544 17.44 4.96 17.504 5.44 17.52V18C4.912 17.968 4.408 17.952 3.928 17.952C3.448 17.936 2.96 17.928 2.464 17.928C2.112 17.928 1.776 17.936 1.456 17.952C1.152 17.952 0.88 17.968 0.64 18V17.52C0.976 17.456 1.32 17.24 1.672 16.872C2.024 16.504 2.368 15.88 2.704 15L8.176 0.959999C8.432 0.975999 8.704 0.983999 8.992 0.983999C9.296 0.983999 9.576 0.975999 9.832 0.959999ZM11.512 11.088V11.568H4.36L4.6 11.088H11.512ZM17.3551 1.008C17.7551 1.024 18.2911 1.04 18.9631 1.056C19.6511 1.072 20.3311 1.08 21.0031 1.08C21.7711 1.08 22.5151 1.072 23.2351 1.056C23.9551 1.04 24.4671 1.032 24.7711 1.032C26.2591 1.032 27.4911 1.2 28.4671 1.536C29.4591 1.856 30.1951 2.328 30.6751 2.952C31.1711 3.576 31.4191 4.328 31.4191 5.208C31.4191 5.752 31.3071 6.304 31.0831 6.864C30.8591 7.408 30.4751 7.92 29.9311 8.4C29.4031 8.864 28.6751 9.24 27.7471 9.528C26.8191 9.8 25.6511 9.936 24.2431 9.936H21.9391V9.456H24.0031C24.9471 9.456 25.6591 9.28 26.1391 8.928C26.6351 8.56 26.9711 8.08 27.1471 7.488C27.3391 6.88 27.4351 6.208 27.4351 5.472C27.4351 4.208 27.2111 3.232 26.7631 2.544C26.3151 1.84 25.5471 1.488 24.4591 1.488C23.8351 1.488 23.4271 1.624 23.2351 1.896C23.0591 2.168 22.9711 2.72 22.9711 3.552V15.456C22.9711 16.032 23.0111 16.464 23.0911 16.752C23.1871 17.04 23.3631 17.232 23.6191 17.328C23.8751 17.424 24.2591 17.488 24.7711 17.52V18C24.3391 17.968 23.7951 17.952 23.1391 17.952C22.4831 17.936 21.8191 17.928 21.1471 17.928C20.3791 17.928 19.6511 17.936 18.9631 17.952C18.2911 17.952 17.7551 17.968 17.3551 18V17.52C17.8671 17.488 18.2511 17.424 18.5071 17.328C18.7631 17.232 18.9311 17.04 19.0111 16.752C19.1071 16.464 19.1551 16.032 19.1551 15.456V3.552C19.1551 2.96 19.1071 2.528 19.0111 2.256C18.9311 1.968 18.7551 1.776 18.4831 1.68C18.2271 1.568 17.8511 1.504 17.3551 1.488V1.008ZM21.8911 9.528C22.5791 9.544 23.1711 9.576 23.6671 9.624C24.1791 9.672 24.6271 9.72 25.0111 9.768C25.3951 9.8 25.7391 9.824 26.0431 9.84C27.4991 9.968 28.5711 10.28 29.2591 10.776C29.9631 11.272 30.4191 12.016 30.6271 13.008L31.1791 15.48C31.3231 16.12 31.4751 16.568 31.6351 16.824C31.7951 17.08 32.0271 17.208 32.3311 17.208C32.5391 17.192 32.7071 17.144 32.8351 17.064C32.9791 16.968 33.1311 16.832 33.2911 16.656L33.6271 16.944C33.1951 17.44 32.7311 17.792 32.2351 18C31.7391 18.224 31.1391 18.336 30.4351 18.336C29.5711 18.336 28.8591 18.152 28.2991 17.784C27.7391 17.416 27.3711 16.736 27.1951 15.744L26.7631 13.344C26.6511 12.672 26.5151 12.088 26.3551 11.592C26.1951 11.08 25.9711 10.68 25.6831 10.392C25.4111 10.088 25.0271 9.936 24.5311 9.936H21.9391L21.8911 9.528ZM36.3963 14.64C37.0203 14.64 37.5163 14.808 37.8843 15.144C38.2523 15.464 38.4363 15.912 38.4363 16.488C38.4363 17.064 38.2523 17.52 37.8843 17.856C37.5163 18.176 37.0203 18.336 36.3963 18.336C35.7723 18.336 35.2763 18.176 34.9083 17.856C34.5403 17.52 34.3563 17.064 34.3563 16.488C34.3563 15.912 34.5403 15.464 34.9083 15.144C35.2763 14.808 35.7723 14.64 36.3963 14.64ZM48.9186 0.671999C49.9746 0.671999 50.8386 0.831999 51.5106 1.152C52.1986 1.456 52.8066 1.816 53.3346 2.232C53.6546 2.472 53.8946 2.504 54.0546 2.328C54.2306 2.136 54.3506 1.696 54.4146 1.008H54.9666C54.9346 1.632 54.9106 2.392 54.8946 3.288C54.8786 4.168 54.8706 5.344 54.8706 6.816H54.3186C54.2386 6.08 54.1346 5.456 54.0066 4.944C53.8786 4.416 53.7026 3.952 53.4786 3.552C53.2546 3.152 52.9346 2.792 52.5186 2.472C52.1186 2.072 51.6546 1.776 51.1266 1.584C50.5986 1.392 50.0466 1.296 49.4706 1.296C48.6066 1.296 47.8706 1.528 47.2626 1.992C46.6546 2.44 46.1586 3.056 45.7746 3.84C45.4066 4.624 45.1346 5.512 44.9586 6.504C44.7826 7.48 44.6946 8.496 44.6946 9.552C44.6946 10.624 44.7826 11.656 44.9586 12.648C45.1506 13.624 45.4386 14.496 45.8226 15.264C46.2226 16.032 46.7346 16.64 47.3586 17.088C47.9826 17.536 48.7186 17.76 49.5666 17.76C50.0946 17.76 50.6226 17.664 51.1506 17.472C51.6946 17.264 52.1586 16.968 52.5426 16.584C53.1666 16.104 53.5906 15.512 53.8146 14.808C54.0386 14.088 54.2066 13.136 54.3186 11.952H54.8706C54.8706 13.472 54.8786 14.704 54.8946 15.648C54.9106 16.576 54.9346 17.36 54.9666 18H54.4146C54.3506 17.312 54.2386 16.88 54.0786 16.704C53.9346 16.528 53.6866 16.552 53.3346 16.776C52.7426 17.192 52.1106 17.56 51.4386 17.88C50.7826 18.184 49.9346 18.336 48.8946 18.336C47.1986 18.336 45.7106 17.992 44.4306 17.304C43.1666 16.616 42.1826 15.624 41.4786 14.328C40.7746 13.032 40.4226 11.472 40.4226 9.648C40.4226 7.856 40.7826 6.288 41.5026 4.944C42.2386 3.6 43.2386 2.552 44.5026 1.8C45.7826 1.048 47.2546 0.671999 48.9186 0.671999ZM67.3045 18V17.52C67.8165 17.488 68.2005 17.424 68.4565 17.328C68.7125 17.232 68.8805 17.04 68.9605 16.752C69.0565 16.464 69.1045 16.032 69.1045 15.456V3.552C69.1045 2.96 69.0565 2.528 68.9605 2.256C68.8805 1.968 68.7045 1.776 68.4325 1.68C68.1765 1.568 67.8005 1.504 67.3045 1.488V1.008C67.7365 1.024 68.2965 1.04 68.9845 1.056C69.6885 1.072 70.3845 1.08 71.0725 1.08C71.8085 1.08 72.4965 1.072 73.1365 1.056C73.7925 1.04 74.3205 1.024 74.7205 1.008V1.488C74.2085 1.504 73.8165 1.568 73.5445 1.68C73.2885 1.776 73.1205 1.968 73.0405 2.256C72.9605 2.528 72.9205 2.96 72.9205 3.552V15.456C72.9205 16.032 72.9605 16.464 73.0405 16.752C73.1365 17.04 73.3125 17.232 73.5685 17.328C73.8245 17.424 74.2085 17.488 74.7205 17.52V18C74.3205 17.968 73.7925 17.952 73.1365 17.952C72.4965 17.936 71.8085 17.928 71.0725 17.928C70.3845 17.928 69.6885 17.936 68.9845 17.952C68.2965 17.952 67.7365 17.968 67.3045 18ZM57.1285 18V17.52C57.6405 17.488 58.0245 17.424 58.2805 17.328C58.5365 17.232 58.7045 17.04 58.7845 16.752C58.8805 16.464 58.9285 16.032 58.9285 15.456V3.552C58.9285 2.96 58.8805 2.528 58.7845 2.256C58.7045 1.968 58.5285 1.776 58.2565 1.68C58.0005 1.568 57.6245 1.504 57.1285 1.488V1.008C57.5445 1.024 58.0805 1.04 58.7365 1.056C59.4085 1.072 60.1365 1.08 60.9205 1.08C61.5925 1.08 62.2565 1.072 62.9125 1.056C63.5685 1.04 64.1125 1.024 64.5445 1.008V1.488C64.0325 1.504 63.6405 1.568 63.3685 1.68C63.1125 1.776 62.9445 1.968 62.8645 2.256C62.7845 2.528 62.7445 2.96 62.7445 3.552V15.456C62.7445 16.032 62.7845 16.464 62.8645 16.752C62.9605 17.04 63.1365 17.232 63.3925 17.328C63.6485 17.424 64.0325 17.488 64.5445 17.52V18C64.1125 17.968 63.5685 17.952 62.9125 17.952C62.2565 17.936 61.5925 17.928 60.9205 17.928C60.1365 17.928 59.4085 17.936 58.7365 17.952C58.0805 17.952 57.5445 17.968 57.1285 18ZM61.1845 9.696V9.216H70.6645V9.696H61.1845ZM83.7398 1.008V1.488C83.2278 1.504 82.8358 1.568 82.5638 1.68C82.3078 1.776 82.1398 1.968 82.0598 2.256C81.9798 2.528 81.9398 2.96 81.9398 3.552V15.456C81.9398 16.032 81.9798 16.464 82.0598 16.752C82.1558 17.04 82.3318 17.232 82.5878 17.328C82.8438 17.424 83.2278 17.488 83.7398 17.52V18C83.3078 17.968 82.7638 17.952 82.1078 17.952C81.4518 17.936 80.7878 17.928 80.1158 17.928C79.3318 17.928 78.6038 17.936 77.9318 17.952C77.2758 17.952 76.7398 17.968 76.3238 18V17.52C76.8358 17.488 77.2198 17.424 77.4758 17.328C77.7318 17.232 77.8998 17.04 77.9798 16.752C78.0758 16.464 78.1238 16.032 78.1238 15.456V3.552C78.1238 2.96 78.0758 2.528 77.9798 2.256C77.8998 1.968 77.7238 1.776 77.4518 1.68C77.1958 1.568 76.8198 1.504 76.3238 1.488V1.008C76.7398 1.024 77.2758 1.04 77.9318 1.056C78.6038 1.072 79.3318 1.08 80.1158 1.08C80.7878 1.08 81.4518 1.072 82.1078 1.056C82.7638 1.04 83.3078 1.024 83.7398 1.008Z" fill="#444444"/>
</svg>
