<svg width="26" height="26" viewBox="0 0 26 26" fill="none" xmlns="http://www.w3.org/2000/svg">
<path d="M0.812479 8.12499H25.1875C25.636 8.12499 25.9999 7.76096 25.9999 7.31251C25.9999 6.86399 25.6359 6.50003 25.1875 6.50003H0.812479C0.363961 6.50003 0 6.86406 0 7.31251C0 7.76096 0.364028 8.12499 0.812479 8.12499Z" fill="#444444"/>
<path d="M25.1875 12.1875H0.812479C0.363961 12.1875 0 12.5516 0 13C0 13.4484 0.364028 13.8125 0.812479 13.8125H25.1875C25.636 13.8125 25.9999 13.4484 25.9999 13C25.9999 12.5516 25.636 12.1875 25.1875 12.1875Z" fill="#444444"/>
<path d="M25.1875 17.875H8.93748C8.48896 17.875 8.125 18.239 8.125 18.6875C8.125 19.136 8.48903 19.5 8.93748 19.5H25.1875C25.636 19.5 25.9999 19.1359 25.9999 18.6875C26 18.239 25.636 17.875 25.1875 17.875Z" fill="#444444"/>
</svg>
